<svg width="182" height="61" viewBox="0 0 182 61" fill="none" xmlns="http://www.w3.org/2000/svg">
<path d="M78.7645 16.7602V41.2802H91.0045V46.0002H73.6445V16.7602H78.7645Z" fill="#021936"/>
<path d="M102.897 46.5202C97.0173 46.5202 92.8973 42.2402 92.8973 36.1202C92.8973 29.9202 96.9373 25.6402 102.737 25.6402C108.657 25.6402 112.417 29.6002 112.417 35.7602V37.2402L97.5373 37.2802C97.8973 40.7602 99.7373 42.5202 102.977 42.5202C105.657 42.5202 107.417 41.4802 107.977 39.6002H112.497C111.657 43.9202 108.057 46.5202 102.897 46.5202ZM102.777 29.6402C99.8973 29.6402 98.1373 31.2002 97.6573 34.1602H107.577C107.577 31.4402 105.697 29.6402 102.777 29.6402Z" fill="#021936"/>
<path d="M120.843 46.0002H116.323V16.2402H121.203V29.1202C122.483 26.9202 125.123 25.6002 128.123 25.6002C133.763 25.6002 137.203 30.0002 137.203 36.2402C137.203 42.3202 133.483 46.5202 127.803 46.5202C124.843 46.5202 122.323 45.2002 121.163 42.9202L120.843 46.0002ZM121.243 36.0402C121.243 39.6002 123.443 42.0402 126.803 42.0402C130.243 42.0402 132.283 39.5602 132.283 36.0402C132.283 32.5202 130.243 30.0002 126.803 30.0002C123.443 30.0002 121.243 32.4802 121.243 36.0402Z" fill="#021936"/>
<path d="M154.02 26.2402H158.9V46.0002H154.38L154.02 43.3602C152.82 45.2402 150.26 46.5202 147.62 46.5202C143.06 46.5202 140.38 43.4402 140.38 38.6002V26.2402H145.26V36.8802C145.26 40.6402 146.74 42.1602 149.46 42.1602C152.54 42.1602 154.02 40.3602 154.02 36.6002V26.2402Z" fill="#021936"/>
<path d="M167.38 46.0002H161.82L168.62 36.3202L161.82 26.2402H167.5L171.86 32.9602L176.06 26.2402H181.54L174.82 36.2402L181.34 46.0002H175.74L171.54 39.4802L167.38 46.0002Z" fill="#021936"/>
<path d="M8.89063 36.7341L17.4098 29.7334C19.0029 29.8397 25.5079 35.7136 28.9596 37.9728C35.438 41.6938 40.3323 37.3969 41.9696 34.7834L43.3393 49.3671C43.3991 50.0034 43.3256 50.6451 43.1238 51.2514C42.9747 51.6989 42.7578 52.1209 42.4806 52.5025L42.4404 52.5578C42.0421 53.106 41.5375 53.5683 40.9566 53.9172L40.5128 54.1838C40.0724 54.4483 39.5835 54.622 39.075 54.6947C38.3638 54.7964 37.6384 54.6972 36.9806 54.4082L9.59606 42.3762C8.98101 42.106 8.47147 41.6416 8.14547 41.0542C8.03827 40.861 7.95222 40.6569 7.8888 40.4452L7.80665 40.1711C7.66157 39.687 7.63302 39.1754 7.72333 38.6782L7.73406 38.6191C7.81136 38.1935 7.98174 37.7902 8.233 37.4381C8.42033 37.1756 8.64145 36.9388 8.89063 36.7341Z" fill="#5454FF"/>
<path d="M30.3516 2L53.2446 11.0264" stroke="#021936" stroke-width="4" stroke-linecap="round"/>
<path d="M30.5764 13.8913L34.405 4.22412L48.01 9.45682L44.1867 18.7283C43.261 20.9733 42.8941 23.4094 43.1176 25.8274L45.1977 48.3298C45.4747 51.3273 43.9208 54.197 41.2591 55.6032C39.6558 56.4502 37.754 56.5213 36.0918 55.7962L9.66761 44.2696C7.93876 43.5155 6.64471 42.0186 6.14843 40.1989C5.67018 38.4453 6.25805 36.5739 7.65314 35.4087L26.2455 19.881C28.1662 18.277 29.655 16.2179 30.5764 13.8913Z" stroke="#021936" stroke-width="4"/>
<ellipse cx="26.0327" cy="57.99" rx="26.0327" ry="2.35471" fill="#021936"/>
<circle cx="34.4038" cy="24.6314" r="1.43899" fill="#0BC270"/>
<circle cx="37.1522" cy="14.8201" r="0.52327" fill="#0BC270"/>
<circle cx="40.8162" cy="12.4652" r="0.52327" fill="#0BC270"/>
</svg>
