<svg width="81" height="80" viewBox="0 0 81 80" fill="none" xmlns="http://www.w3.org/2000/svg">
<path d="M44.3633 12.0717L53.6071 2.44277C54.3721 1.64595 55.6381 1.62012 56.435 2.38507L78.5197 23.5864C79.328 24.3624 79.3412 25.651 78.5488 26.4434L68.8919 36.1003C68.1165 36.8757 66.8614 36.8821 66.0781 36.1148L44.4066 14.8855C43.6231 14.1181 43.6038 12.8629 44.3633 12.0717Z" stroke="#5454FF" stroke-width="3"/>
<path d="M8.20598 52.2543L21 40L51 49.5L43.6527 56.9472L29.2965 71.3384C24.8104 75.8355 18.6001 79.1122 12.517 77.2833C5.68014 75.2276 2.92819 70.515 2.20612 65.5802C1.46156 60.4917 4.49202 55.8116 8.20598 52.2543Z" stroke="#5454FF" stroke-width="3"/>
<path d="M8.23557 52.247L45.1766 17L64.9917 35.5561L29.2965 71.3383C24.8104 75.8354 18.6001 79.1122 12.517 77.2832C5.69219 75.2312 2.93791 70.5316 2.20996 65.6062C1.45565 60.5026 4.50294 55.8084 8.23557 52.247Z" stroke="#5454FF" stroke-width="3"/>
</svg>
