<svg width="84" height="84" viewBox="0 0 84 84" fill="none" xmlns="http://www.w3.org/2000/svg">
<path d="M35.1379 52.1943C36.5162 42.4016 47.238 22.4184 53.9637 11.0586C54.9642 9.36881 57.0349 7.57245 58.9859 7.79533C61.1032 8.03719 62.2134 9.36209 63.406 11.1282C70.7571 22.015 77.6577 40.7078 81.0673 51.4688C81.7047 53.4804 82.0844 55.581 81.9829 57.6887C81.2042 73.8596 69.7509 79.9647 60.8485 81.5504C57.3273 82.1776 53.6809 81.7288 50.3748 80.3643C37.6092 75.0957 34.6703 63.7014 34.8177 56.8122C34.8508 55.2672 34.9225 53.7247 35.1379 52.1943Z" stroke="#5454FF" stroke-width="3"/>
<path d="M56.0026 76.2011C48.0943 74.8344 43.5952 69.8729 41.566 66.0523C40.8464 64.6973 41.6854 63.1444 43.1549 62.7035C44.497 62.3009 45.9096 62.9704 46.6349 64.1693C49.4013 68.7426 53.2119 70.6537 56.0325 71.269C57.351 71.5566 58.5 72.6379 58.5 73.9873C58.5 75.3462 57.3416 76.4325 56.0026 76.2011Z" fill="#5454FF"/>
<path d="M2.39604 30.4172C3.85336 23.7164 10.8452 11.431 15.337 4.25985C16.0686 3.09184 17.5448 1.87728 18.9145 2.02996C20.3786 2.19316 21.1634 3.07339 22.0185 4.27297C26.87 11.0789 31.4366 22.4602 33.928 29.6675C34.6556 31.7723 35.1158 33.9939 34.8696 36.2072C33.8641 45.2467 27.2284 49.1282 21.504 50.4415C18.206 51.1981 14.7042 50.8164 11.6365 49.3888C4.30187 45.9755 2.18835 39.6498 2.01234 35.3014C1.94617 33.6668 2.04838 32.0158 2.39604 30.4172Z" stroke="#5454FF" stroke-width="3"/>
<path d="M16.7506 44.708C12.9662 43.7083 10.4325 40.5499 9.07499 38.0409C8.38398 36.7636 9.30575 35.3549 10.7491 35.1945C11.7879 35.0791 12.761 35.6714 13.2694 36.5846C14.3941 38.6047 15.6893 39.8012 16.8475 40.4296C17.8771 40.9881 18.8655 42.0757 18.7203 43.238C18.5968 44.2253 17.7126 44.9622 16.7506 44.708Z" fill="#5454FF"/>
</svg>
