<svg width="60" height="60" viewBox="0 0 60 60" fill="none" xmlns="http://www.w3.org/2000/svg">
<g clip-path="url(#clip0_1_502)">
<path d="M45.2577 33.4277L44.7805 33.7308C44.6192 33.834 44.4837 33.9694 44.387 34.1242L42.3876 37.2652C41.7685 38.2391 40.7043 38.8518 39.5498 38.9032L35.8285 39.0645C35.6415 39.0711 35.4544 39.1225 35.2931 39.2064L34.7707 39.4773L31.0623 47.7004L36.1767 59.0387C36.6927 60.1802 38.2535 60.3222 38.9694 59.2967L42.8584 53.7114C43.2971 53.1116 43.8646 52.7955 44.2386 53.0213L51.6685 53.2792C52.8617 53.3179 53.6872 52.0925 53.197 51.0026L45.2577 33.4277Z" fill="#5454FF"/>
<path d="M30.3521 41.3286C29.7845 41.3286 29.2169 41.193 28.7139 40.9287L27.7852 40.445L25.4054 39.2131C25.2377 39.1292 25.0506 39.0777 24.8701 39.0713L21.1487 38.91C19.9942 38.8584 18.93 38.2457 18.3109 37.2719L16.3115 34.1309C16.2083 33.9696 16.0729 33.8342 15.9181 33.7375L14.8926 33.0861L6.80493 51.0157C6.32122 52.0864 7.10806 53.2925 8.26898 53.2925C8.28833 53.2925 8.30767 53.2925 8.32702 53.2925L15.7569 53.0345C15.7762 53.0345 15.7956 53.0345 15.8149 53.0345C16.3438 53.0345 16.8339 53.2925 17.1371 53.7245L21.0261 59.3098C21.3486 59.7743 21.8517 60 22.3483 60C22.9482 60 23.5415 59.6709 23.8188 59.0518L29.9908 45.366L31.9902 40.9416L31.9838 40.948C31.4808 41.1931 30.9132 41.3286 30.3521 41.3286Z" fill="#5454FF"/>
<path d="M41.9055 6.8463C42.2313 7.35601 42.6693 7.80509 43.1999 8.13934C43.2007 8.13985 43.2015 8.14036 43.2023 8.14087L46.338 10.1369C46.5089 10.2459 46.6144 10.4262 46.6249 10.6307C46.625 10.6313 46.625 10.6318 46.625 10.6324L46.7859 14.3397C46.7859 14.3398 46.7859 14.3399 46.7859 14.34C46.8113 14.9573 46.9721 15.5581 47.2584 16.1067C47.259 16.1078 47.2595 16.1089 47.2601 16.1099L48.9598 19.4128L48.9598 19.4128L48.9646 19.4219C49.0555 19.5942 49.0555 19.7995 48.9646 19.9718L48.9612 19.9782L47.2474 23.2835C47.2469 23.2845 47.2464 23.2854 47.2459 23.2863C46.9592 23.8351 46.7985 24.4362 46.773 25.0535C46.773 25.0537 46.773 25.0539 46.773 25.054L46.6121 28.7678C46.6121 28.7684 46.612 28.769 46.612 28.7696C46.6015 28.9737 46.4962 29.1539 46.3254 29.263C46.3253 29.2631 46.3251 29.2632 46.325 29.2633L43.9013 30.8037L43.9008 30.804L43.1914 31.2555L43.1895 31.2567C42.6797 31.5827 42.2306 32.0209 41.8964 32.5514C41.8959 32.5521 41.8955 32.5528 41.895 32.5535L39.8989 35.6893C39.7899 35.8602 39.6095 35.9658 39.4051 35.9762C39.4046 35.9763 39.404 35.9763 39.4035 35.9763L35.7705 36.1373L35.7543 36.1381L35.7381 36.1393L35.6658 36.1449C35.1879 36.171 34.7216 36.2776 34.2828 36.454C34.1483 36.5033 34.0278 36.5599 33.9171 36.6191L32.8013 37.1962L32.7999 37.1969L30.6136 38.332L30.6075 38.3352C30.5293 38.3765 30.4333 38.4002 30.3327 38.4002C30.2322 38.4002 30.1361 38.3765 30.0578 38.3352L30.0522 38.3322L26.9499 36.7199L26.9474 36.7186L26.7524 36.6179C26.7515 36.6175 26.7507 36.617 26.7498 36.6166C26.2011 36.33 25.6003 36.1692 24.9831 36.1437C24.9826 36.1437 24.9822 36.1437 24.9818 36.1437L21.2683 35.9828C21.2676 35.9827 21.267 35.9827 21.2663 35.9827C21.0621 35.972 20.8817 35.8666 20.7728 35.6958C20.7727 35.6958 20.7727 35.6957 20.7726 35.6957L18.7738 32.5555L18.7727 32.5538C18.4469 32.0441 18.0088 31.5948 17.478 31.2606C17.4772 31.2601 17.4764 31.2596 17.4757 31.2591L16.2224 30.4622L16.2205 30.461L15.3951 29.9386L15.395 29.9386L14.5729 29.4182L14.5695 29.4161L14.3407 29.27L14.3401 29.2696C14.1694 29.1607 14.0639 28.9806 14.0533 28.7762C14.0532 28.7755 14.0532 28.7748 14.0532 28.7741L13.8923 25.0604C13.8923 25.06 13.8923 25.0596 13.8922 25.0592C13.8667 24.4418 13.7057 23.8407 13.4189 23.2918C13.4186 23.2912 13.4183 23.2907 13.4181 23.2901L11.7041 19.9847L11.7042 19.9847L11.7008 19.9782C11.6098 19.806 11.6098 19.6006 11.7008 19.4284L11.7008 19.4284L11.7041 19.4219L13.4181 16.1165C13.4183 16.116 13.4186 16.1154 13.4189 16.1149C13.7057 15.566 13.8667 14.9648 13.8922 14.3473C13.8922 14.3469 13.8923 14.3465 13.8923 14.3461L14.0533 10.6303C14.0639 10.4261 14.1693 10.246 14.34 10.137C14.3401 10.137 14.3401 10.137 14.3402 10.1369L17.4804 8.138L17.4821 8.13694C17.9918 7.81109 18.441 7.37306 18.7752 6.84238C18.7757 6.84158 18.7762 6.84079 18.7767 6.83999L20.7727 3.70438C20.7728 3.70432 20.7728 3.70426 20.7728 3.70421C20.8818 3.53352 21.0619 3.42812 21.2661 3.41749L24.9819 3.25649C24.9823 3.25647 24.9827 3.25646 24.9831 3.25644C25.6005 3.23089 26.2016 3.06997 26.7505 2.7832C26.7511 2.78288 26.7517 2.78257 26.7523 2.78226L30.0577 1.06834L30.0577 1.06836L30.0642 1.06497C30.1423 1.02371 30.2384 1 30.3391 1C30.4398 1 30.5358 1.02371 30.614 1.06497L30.614 1.065L30.6205 1.06834L33.9259 2.78226C33.9264 2.78255 33.927 2.78284 33.9276 2.78313C34.4765 3.06994 35.0776 3.23089 35.6951 3.25644C35.6955 3.25646 35.6959 3.25647 35.6963 3.25649L39.41 3.41738C39.4107 3.41742 39.4114 3.41745 39.4121 3.41749C39.6163 3.42812 39.7966 3.53359 39.9055 3.70438L41.9044 6.84462L41.9055 6.8463Z" stroke="#5454FF" stroke-width="2"/>
<path d="M39.4709 18.0312L33.0901 17.2348L30.236 12.2783L27.3809 17.2348L20.9998 18.0312L25.6163 21.8867L24.5285 27.3351L30.236 24.7655L35.9445 27.3351L34.8557 21.8867L39.4709 18.0312Z" fill="#5454FF"/>
</g>
<defs>
<clipPath id="clip0_1_502">
<rect width="60" height="60" fill="white"/>
</clipPath>
</defs>
</svg>
