<svg width="71" height="71" viewBox="0 0 71 71" fill="none" xmlns="http://www.w3.org/2000/svg">
<ellipse cx="28.1073" cy="56.0795" rx="26.1073" ry="13.0537" stroke="#5454FF" stroke-width="3" stroke-linejoin="round"/>
<circle cx="28.1099" cy="16.9185" r="14.9185" stroke="#5454FF" stroke-width="3" stroke-linejoin="round"/>
<path fill-rule="evenodd" clip-rule="evenodd" d="M46.452 30.3323C45.7254 31.3012 44.9219 32.2092 44.0508 33.0474C44.9235 33.2371 45.8298 33.3371 46.7594 33.3371C53.7673 33.3371 59.4483 27.6561 59.4483 20.6482C59.4483 14.4564 55.0133 9.30041 49.1466 8.18359C49.6148 9.28679 49.997 10.4353 50.2849 11.6208C53.8926 13.0307 56.4483 16.541 56.4483 20.6482C56.4483 25.9992 52.1104 30.3371 46.7594 30.3371C46.6565 30.3371 46.5541 30.3355 46.452 30.3323Z" fill="#5454FF"/>
<path fill-rule="evenodd" clip-rule="evenodd" d="M61.5646 57.7349C61.4073 58.9394 61.0797 60.1146 60.5965 61.2515C61.4979 60.9703 62.3523 60.6618 63.1531 60.3281C65.2864 59.4393 67.1107 58.3427 68.4246 57.0483C69.7438 55.7488 70.6304 54.1603 70.6304 52.3504C70.6304 50.5405 69.7438 48.952 68.4246 47.6525C67.1107 46.3581 65.2864 45.2616 63.1531 44.3727C60.1424 43.1182 56.374 42.2185 52.1969 41.7964C54.0105 42.9385 55.6086 44.2092 56.951 45.584C58.8295 46.0018 60.5297 46.5296 61.9992 47.1419C63.9155 47.9404 65.3684 48.853 66.3192 49.7897C67.2648 50.7211 67.6304 51.5856 67.6304 52.3504C67.6304 53.1153 67.2648 53.9797 66.3192 54.9112C65.3684 55.8479 63.9155 56.7604 61.9992 57.5589C61.8565 57.6184 61.7116 57.677 61.5646 57.7349Z" fill="#5454FF"/>
</svg>
