<svg width="93" height="89" viewBox="0 0 93 89" fill="none" xmlns="http://www.w3.org/2000/svg">
<path d="M66.794 13.1711H68.294C68.294 12.6263 67.9986 12.1244 67.5225 11.8598L66.794 13.1711ZM46.6863 2L47.4147 0.688767C46.9617 0.43708 46.4108 0.437077 45.9578 0.688761L46.6863 2ZM66.794 35.5132L67.5225 36.8244C67.9986 36.5599 68.294 36.058 68.294 35.5132H66.794ZM46.6863 46.6843L45.9578 47.9955C46.4108 48.2472 46.9617 48.2472 47.4147 47.9955L46.6863 46.6843ZM26.5781 35.5132H25.0781C25.0781 36.058 25.3735 36.5599 25.8497 36.8245L26.5781 35.5132ZM26.5781 13.1711L25.8497 11.8598C25.3735 12.1244 25.0781 12.6263 25.0781 13.1711H26.5781ZM42.2159 53.387H43.7159C43.7159 52.8423 43.4205 52.3404 42.9443 52.0758L42.2159 53.387ZM22.1081 42.216L22.8366 40.9047C22.3836 40.653 21.8327 40.653 21.3797 40.9047L22.1081 42.216ZM42.2159 75.7292L42.9443 77.0404C43.4205 76.7758 43.7159 76.2739 43.7159 75.7292H42.2159ZM22.1081 86.9002L21.3797 88.2115C21.8327 88.4632 22.3836 88.4632 22.8366 88.2115L22.1081 86.9002ZM2 75.7292H0.5C0.5 76.2739 0.79534 76.7759 1.27154 77.0404L2 75.7292ZM2 53.387L1.27154 52.0758C0.795341 52.3403 0.5 52.8423 0.5 53.387H2ZM71.2603 42.2161L71.9887 40.9048C71.5357 40.6531 70.9848 40.6531 70.5318 40.9048L71.2603 42.2161ZM91.368 53.3871H92.868C92.868 52.8424 92.5726 52.3405 92.0965 52.0759L91.368 53.3871ZM51.1521 53.3871L50.4237 52.0759C49.9475 52.3405 49.6521 52.8424 49.6521 53.3871H51.1521ZM51.1521 75.7293H49.6521C49.6521 76.274 49.9475 76.776 50.4237 77.0405L51.1521 75.7293ZM71.2603 86.9004L70.5318 88.2116C70.9848 88.4633 71.5357 88.4633 71.9887 88.2116L71.2603 86.9004ZM91.368 75.7293L92.0965 77.0405C92.5726 76.776 92.868 76.274 92.868 75.7293H91.368ZM67.5225 11.8598L47.4147 0.688767L45.9578 3.31123L66.0655 14.4823L67.5225 11.8598ZM68.294 35.5132V13.1711H65.294V35.5132H68.294ZM47.4147 47.9955L67.5225 36.8244L66.0655 34.202L45.9578 45.3731L47.4147 47.9955ZM25.8497 36.8245L45.9578 47.9955L47.4147 45.3731L27.3066 34.202L25.8497 36.8245ZM25.0781 13.1711V35.5132H28.0781V13.1711H25.0781ZM45.9578 0.688761L25.8497 11.8598L27.3066 14.4823L47.4147 3.31124L45.9578 0.688761ZM42.9443 52.0758L22.8366 40.9047L21.3797 43.5272L41.4874 54.6983L42.9443 52.0758ZM43.7159 75.7292V53.387H40.7159V75.7292H43.7159ZM22.8366 88.2115L42.9443 77.0404L41.4874 74.4179L21.3797 85.589L22.8366 88.2115ZM1.27154 77.0404L21.3797 88.2115L22.8366 85.589L2.72846 74.4179L1.27154 77.0404ZM0.5 53.387V75.7292H3.5V53.387H0.5ZM21.3797 40.9047L1.27154 52.0758L2.72846 54.6983L22.8366 43.5272L21.3797 40.9047ZM70.5318 43.5273L90.6395 54.6984L92.0965 52.0759L71.9887 40.9048L70.5318 43.5273ZM51.8806 54.6984L71.9887 43.5273L70.5318 40.9048L50.4237 52.0759L51.8806 54.6984ZM52.6521 75.7293V53.3871H49.6521V75.7293H52.6521ZM71.9887 85.5891L51.8806 74.418L50.4237 77.0405L70.5318 88.2116L71.9887 85.5891ZM90.6395 74.418L70.5318 85.5891L71.9887 88.2116L92.0965 77.0405L90.6395 74.418ZM89.868 53.3871V75.7293H92.868V53.3871H89.868Z" fill="#5454FF"/>
</svg>
