<svg width="75" height="89" viewBox="0 0 75 89" fill="none" xmlns="http://www.w3.org/2000/svg">
<path d="M43.1059 13.5621L46.0422 16.4296L22.3231 40.1586C18.9987 43.4845 17.131 47.9954 17.131 52.6989V57.8932H22.3231C27.0245 57.8932 31.5333 56.0248 34.8577 52.6989L58.7279 28.8187L61.7214 31.7421C63.035 33.0249 65.1393 32.9995 66.4215 31.6854C67.7038 30.3712 67.6784 28.266 66.3649 26.9831L63.4288 24.1158L70.404 17.1374C73.8653 13.6745 73.8653 8.06007 70.404 4.59717C66.9427 1.13428 61.3307 1.13428 57.8694 4.59717L50.743 11.7267L47.7494 8.8031C46.4358 7.52027 44.3315 7.54566 43.0492 8.85981C41.767 10.174 41.7924 12.2792 43.1059 13.5621Z" stroke="#5454FF" stroke-width="3" stroke-linejoin="round"/>
<path d="M8.64749 87C12.3188 87 15.295 85.2468 15.295 80.3495C15.295 75.4523 8.64749 69.2654 8.64749 69.2654C8.64749 69.2654 2 75.4523 2 80.3495C2 85.2468 4.97618 87 8.64749 87Z" stroke="#5454FF" stroke-width="3" stroke-linejoin="round"/>
</svg>
