<svg width="87" height="87" viewBox="0 0 87 87" fill="none" xmlns="http://www.w3.org/2000/svg">
<path d="M24.6914 10V4C24.6914 2.89543 25.5868 2 26.6914 2H60.1914C61.296 2 62.1914 2.89543 62.1914 4V10C62.1914 11.1046 61.296 12 60.1914 12H26.6914C25.5868 12 24.6914 11.1046 24.6914 10Z" stroke="#5454FF" stroke-width="3" stroke-linecap="round"/>
<path d="M3.0423 77.9018L16.7424 56.895C16.9055 56.6449 17.1711 56.4799 17.4683 56.4511C26.3984 55.5852 36.3392 58.42 42.24 60.7398C44.6632 61.6924 47.1152 62.697 49.7181 62.7605C57.7192 62.9558 65.267 58.969 68.992 56.5563C69.4569 56.2552 70.0797 56.3722 70.3917 56.8299L84.0435 76.8628C84.9613 78.2095 85.1975 79.9075 84.6821 81.4536C83.9753 83.5741 81.997 85.0093 79.7618 85.0232L7.17465 85.4741C4.76925 85.489 2.70913 83.7548 2.31368 81.3821C2.11195 80.1717 2.37197 78.9296 3.0423 77.9018Z" stroke="#5454FF" stroke-width="3" stroke-linecap="round"/>
<path d="M32.6931 32.6972V13C32.6931 12.4477 33.1408 12 33.6931 12H53.6914C54.2437 12 54.6914 12.4477 54.6914 13V32.6972C54.6914 32.8946 54.7498 33.0877 54.8594 33.2519L84.6247 77.9C84.669 77.9664 84.7064 78.0405 84.7328 78.1159C86.628 83.5258 82.1667 85.3345 78.6914 85.5H8.19309C1.05766 85.5 1.51748 80.5893 2.66186 78.0679C2.68272 78.0219 2.70715 77.9789 2.73515 77.9369L32.5251 33.2519C32.6347 33.0877 32.6931 32.8946 32.6931 32.6972Z" stroke="#5454FF" stroke-width="3" stroke-linecap="round"/>
</svg>
